<?xml version="1.0" encoding="utf-8"?>
<!-- Generator: Adobe Illustrator 23.0.1, SVG Export Plug-In . SVG Version: 6.00 Build 0)  -->
<svg version="1.1" id="Layer_1" xmlns="http://www.w3.org/2000/svg" xmlns:xlink="http://www.w3.org/1999/xlink" x="0px" y="0px"
	 viewBox="0 0 1366 768" style="enable-background:new 0 0 1366 768;" xml:space="preserve">
<g>
	<rect x="273.5" y="256.5" width="28" height="147"/>
	<path d="M301,257v146h-27V257H301 M302,256h-29v148h29V256L302,256z"/>
</g>
<g>
	<rect x="302.5" y="375.5" width="147" height="28"/>
	<path d="M449,376v27H303v-27H449 M450,375H302v29h148V375L450,375z"/>
</g>
<g>
	<rect x="302.5" y="256.5" width="147" height="28"/>
	<path d="M449,257v27H303v-27H449 M450,256H302v29h148V256L450,256z"/>
</g>
<g>
	<rect x="354.5" y="317.5" width="95" height="28"/>
	<path d="M449,318v27h-94v-27H449 M450,317h-96v29h96V317L450,317z"/>
</g>
<g>
	<rect x="450.5" y="317.5" width="28" height="147"/>
	<path d="M478,318v146h-27V318H478 M479,317h-29v148h29V317L479,317z"/>
</g>
<g>
	<rect x="508.5" y="377.5" width="147" height="28"/>
	<path d="M655,378v27H509v-27H655 M656,377H508v29h148V377L656,377z"/>
</g>
<g>
	<rect x="508.5" y="256.5" width="28" height="115"/>
	<path d="M536,257v114h-27V257H536 M537,256h-29v116h29V256L537,256z"/>
</g>
<g>
	<rect x="685.5" y="376.5" width="147" height="28"/>
	<path d="M832,377v27H686v-27H832 M833,376H685v29h148V376L833,376z"/>
</g>
<g>
	<rect x="683.38" y="313.67" transform="matrix(0.6188 -0.7856 0.7856 0.6188 32.7544 722.8353)" width="155.48" height="28"/>
	<path d="M798.31,258.64l21.21,16.71L723.93,396.7l-21.21-16.71L798.31,258.64 M798.14,257.24l-96.82,122.92l22.78,17.94
		l96.82-122.92L798.14,257.24L798.14,257.24z"/>
</g>
<g>
	<rect x="747.12" y="249.93" transform="matrix(0.7763 -0.6304 0.6304 0.7763 -36.2896 553.0789)" width="28" height="155.48"/>
	<path d="M722.91,259.2l97.38,119.92l-20.96,17.02l-97.38-119.92L722.91,259.2 M723.06,257.79l-22.51,18.28l98.64,121.47
		l22.51-18.28L723.06,257.79L723.06,257.79z"/>
</g>
<g>
	<rect x="798.38" y="257.67" width="34.12" height="28"/>
	<path d="M832,258.17v27h-33.12v-27H832 M833,257.17h-35.12v29H833V257.17L833,257.17z"/>
</g>
<g>
	<rect x="688.38" y="257.67" width="34.12" height="28"/>
	<path d="M722,258.17v27h-33.12v-27H722 M723,257.17h-35.12v29H723V257.17L723,257.17z"/>
</g>
<g>
	<rect x="479.5" y="436.5" width="147" height="28"/>
	<path d="M626,437v27H480v-27H626 M627,436H479v29h148V436L627,436z"/>
</g>
<g>
	<rect x="627.5" y="436.5" width="147" height="28"/>
	<path d="M774,437v27H628v-27H774 M775,436H627v29h148V436L775,436z"/>
</g>
</svg>
